{"title":"Despicable Me 2 2013 HDCAM READNFO x264 AAC-BadMeetsEvil","uid":8652188,"size":787749235,"categoryP":"video","categoryS":"movies","magnet":"?xt=urn:btih:6a7b9503676d0d2974921ebf70ed5e61c324b482&amp;dn=Despicable+Me+2+2013+HDCAM+READNFO+x264+AAC-BadMeetsEvil&amp;tr=udp%3A%2F%2Ftracker.openbittorrent.com%3A80&amp;tr=udp%3A%2F%2Fopen.demonii.com%3A1337&amp;tr=udp%3A%2F%2Ftracker.coppersurfer.tk%3A6969&amp;tr=udp%3A%2F%2Fexodus.desync.com%3A6969","seeders":4,"leechers":0,"uploader":"juggs99","files":5,"time":1373134669,"description":"Sources: Video - Latino HDCAM ... Audio - CAM Voice Memo - THANKS\n\n^^^ NOTES: Resized, tweaked gamma, sat, brightness, contrast, levels and sharpen. Audio is nice for a cam, and is synced.\nOnly problem is theres a couple of minutes missing off the ending of the vid about 8 mins including the rolling credits, enjoy until something better is here.\n &lt;a href=&quot;\nhttp://www.imdb.com/title/tt1690953/&quot; rel=&quot;nofollow&quot; target=&quot;_NEW&quot;&gt;\nhttp://www.imdb.com/title/tt1690953/&lt;/a&gt;\n\nGru is recruited by the Anti-Villain League to help deal with a powerful new super criminal.\n\nGeneral\nComplete name                            : Despicable Me 2 2013 HDCAM READNFO x264 AAC-BadMeetsEvil.mp4\nFormat                                   : MPEG-4\nFormat profile                           : Base Media\nCodec ID                                 : isom\nFile size                                : 735 MiB\nDuration                                 : 1h 30mn\nOverall bit rate mode                    : Variable\nOverall bit rate                         : 1 141 Kbps\nEncoded date                             : UTC 2013-07-06 15:38:20\nTagged date                              : UTC 2013-07-06 15:38:20\n\nVideo\nID                                       : 1\nFormat                                   : AVC\nFormat/Info                              : Advanced Video Codec\nFormat profile                           : &lt;a class=&quot;__cf_email__&quot; href=&quot;/cdn-cgi/l/email-protection&quot; data-cfemail=&quot;6c24050b042c2058425d&quot;&gt;[email&amp;#160;protected]&lt;/a&gt;&lt;script cf-hash='f9e31' type=&quot;text/javascript&quot;&gt;\n/* &lt;![CDATA[ */!function(){try{var t=&quot;currentScript&quot;in document?document.currentScript:function(){for(var t=document.getElementsByTagName(&quot;script&quot;),e=t.length;e--;)if(t[e].getAttribute(&quot;cf-hash&quot;))return t[e]}();if(t&amp;&amp;t.previousSibling){var e,r,n,i,c=t.previousSibling,a=c.getAttribute(&quot;data-cfemail&quot;);if(a){for(e=&quot;&quot;,r=parseInt(a.substr(0,2),16),n=2;a.length-n;n+=2)i=parseInt(a.substr(n,2),16)^r,e+=String.fromCharCode(i);e=document.createTextNode(e),c.parentNode.replaceChild(e,c)}}}catch(u){}}();/* ]]&gt; */&lt;/script&gt;\nFormat settings, CABAC                   : Yes\nFormat settings, ReFrames                : 3 frames\nCodec ID                                 : avc1\nCodec ID/Info                            : Advanced Video Coding\nDuration                                 : 1h 30mn\nBit rate mode                            : Variable\nBit rate                                 : 1 047 Kbps\nMaximum bit rate                         : 40.0 Mbps\nWidth                                    : 640 pixels\nHeight                                   : 342 pixels\nDisplay aspect ratio                     : 1.85:1\nFrame rate mode                          : Constant\nFrame rate                               : 23.976 fps\nColor space                              : YUV\nChroma subsampling                       : 4:2:0\nBit depth                                : 8 bits\nScan type                                : Progressive\nBits/(Pixel*Frame)                       : 0.200\nStream size                              : 674 MiB (92%)\nWriting library                          : x264 core 133 r2334 a3ac64b\n\nAudio\nID                                       : 2\nFormat                                   : AAC\nFormat/Info                              : Advanced Audio Codec\nFormat profile                           : LC\nCodec ID                                 : 40\nDuration                                 : 1h 30mn\nBit rate mode                            : Variable\nBit rate                                 : 90.7 Kbps\nMaximum bit rate                         : 111 Kbps\nChannel(s)                               : 2 channels\nChannel positions                        : Front: L R\nSampling rate                            : 44.1 KHz\nCompression mode                         : Lossy\nStream size                              : 58.4 MiB (8%)\nLanguage                                 : English\nEncoded date                             : UTC 2013-07-06 15:30:54\nTagged date                              : UTC 2013-07-06 15:38:45\n\n &lt;a href=&quot;\nhttp://img59.imageshack.us/img59/5557/8mer.png&quot; rel=&quot;nofollow&quot; target=&quot;_NEW&quot;&gt;\nhttp://img59.imageshack.us/img59/5557/8mer.png&lt;/a&gt; &lt;a href=&quot;\nhttp://img15.imageshack.us/img15/1826/lj04.png&quot; rel=&quot;nofollow&quot; target=&quot;_NEW&quot;&gt;\nhttp://img15.imageshack.us/img15/1826/lj04.png&lt;/a&gt; &lt;a href=&quot;\nhttp://img194.imageshack.us/img194/4307/y1wq.png&quot; rel=&quot;nofollow&quot; target=&quot;_NEW&quot;&gt;\nhttp://img194.imageshack.us/img194/4307/y1wq.png&lt;/a&gt; &lt;a href=&quot;\nhttp://img9.imageshack.us/img9/9506/z8q4.png&quot; rel=&quot;nofollow&quot; target=&quot;_NEW&quot;&gt;\nhttp://img9.imageshack.us/img9/9506/z8q4.png&lt;/a&gt; &lt;a href=&quot;\nhttp://img841.imageshack.us/img841/5153/d7av.png&quot; rel=&quot;nofollow&quot; target=&quot;_NEW&quot;&gt;\nhttp://img841.imageshack.us/img841/5153/d7av.png&lt;/a&gt;","torrent":{"xt":"urn:btih:6a7b9503676d0d2974921ebf70ed5e61c324b482","amp;dn":"Despicable+Me+2+2013+HDCAM+READNFO+x264+AAC-BadMeetsEvil","amp;tr":["udp%3A%2F%2Ftracker.openbittorrent.com%3A80","udp%3A%2F%2Fopen.demonii.com%3A1337","udp%3A%2F%2Ftracker.coppersurfer.tk%3A6969","udp%3A%2F%2Fexodus.desync.com%3A6969"],"infoHash":"6a7b9503676d0d2974921ebf70ed5e61c324b482","infoHashBuffer":{"type":"Buffer","data":[106,123,149,3,103,109,13,41,116,146,30,191,112,237,94,97,195,36,180,130]},"announce":[],"urlList":[]}}